<?xml version="1.0" standalone="no"?><!DOCTYPE svg PUBLIC "-//W3C//DTD SVG 1.1//EN" "http://www.w3.org/Graphics/SVG/1.1/DTD/svg11.dtd"><svg t="1639616883706" class="icon" viewBox="0 0 1024 1024" version="1.1" xmlns="http://www.w3.org/2000/svg" p-id="3887" xmlns:xlink="http://www.w3.org/1999/xlink" width="200" height="200"><defs><style type="text/css"></style></defs><path d="M512 1023.4c-282.8 0-512-229-512-511.4S229.2 0.6 512 0.6s512 229 512 511.4c0.1 282.4-229.1 511.4-512 511.4zM509.1 96c-229.8 0-408 186-408 415.4s178.2 409.1 408 409.1 416.1-179.7 416.1-409.1S738.9 96 509.1 96z m208.2 466.6H563.6V716c0 28.2-22.9 51.1-51.1 51.1h-0.1c-28.2 0-51.1-22.8-51.1-51.1V562.6H307.5c-28.3 0-51.1-22.8-51.1-51v-0.1c0-28.2 22.9-51.1 51.1-51.1h153.7V306.9c0-28.2 22.9-51.1 51.1-51.1h0.1c28.3 0 51.1 22.8 51.1 51.1v153.4h153.7c28.3 0 51.1 22.8 51.1 51.1v0.1c0.1 28.3-22.7 51.1-51 51.1z" p-id="3888" fill="#2c2c2c"></path></svg>