<?xml version="1.0" standalone="no"?><!DOCTYPE svg PUBLIC "-//W3C//DTD SVG 1.1//EN" "http://www.w3.org/Graphics/SVG/1.1/DTD/svg11.dtd"><svg t="1643454301790" class="icon" viewBox="0 0 1024 1024" version="1.1" xmlns="http://www.w3.org/2000/svg" p-id="1585" xmlns:xlink="http://www.w3.org/1999/xlink" width="200" height="200"><defs><style type="text/css"></style></defs><path d="M512 0a512 512 0 1 1 0 1024A512 512 0 0 1 512 0z m0 90.331429a421.668571 421.668571 0 1 0 0 843.337142 421.668571 421.668571 0 0 0 0-843.337142z m122.88 194.048l163.84 163.986285-63.853714 63.926857-87.332572-87.405714v342.674286H557.202286V316.562286l1.097143-8.192c1.609143-10.166857 3.291429-12.288 12.214857-23.990857l10.093714-5.558858c22.528-11.922286 25.819429-10.093714 54.198857 5.558858z m-167.497143-13.312v450.998857l-1.097143 8.192c-1.609143 10.166857-3.218286 12.288-12.141714 23.990857l-10.166857 5.558857c-22.454857 11.995429-25.819429 10.093714-54.125714-5.558857L225.792 590.262857l63.926857-63.926857 87.332572 87.405714V271.067429H467.382857z" p-id="1586"></path></svg>