<?xml version="1.0" standalone="no"?><!DOCTYPE svg PUBLIC "-//W3C//DTD SVG 1.1//EN" "http://www.w3.org/Graphics/SVG/1.1/DTD/svg11.dtd"><svg t="1641479975325" class="icon" viewBox="0 0 1024 1024" version="1.1" xmlns="http://www.w3.org/2000/svg" p-id="129746" xmlns:xlink="http://www.w3.org/1999/xlink" width="200" height="200"><defs><style type="text/css"></style></defs><path d="M512 1024C229.216 1024 0 794.784 0 512S229.216 0 512 0s512 229.216 512 512-229.216 512-512 512z m255.808-504.992L527.936 128 288 519.04l239.936 139.296 239.872-139.328zM768 563.712l-240.064 139.232L288 563.744l239.936 332.096L768 563.712z" p-id="129747" fill="#2c2c2c"></path><path d="M527.936 128v283.84l239.904 107.2z m0 574.976v192.864L768 563.712z" fill-opacity=".298" p-id="129748" fill="#2c2c2c"></path><path d="M527.936 658.336l239.904-139.296-239.904-107.136z" fill-opacity=".801" p-id="129749" fill="#2c2c2c"></path><path d="M288 519.04l239.936 139.296v-246.432z" fill-opacity=".298" p-id="129750" fill="#2c2c2c"></path></svg>