<?xml version="1.0" standalone="no"?><!DOCTYPE svg PUBLIC "-//W3C//DTD SVG 1.1//EN" "http://www.w3.org/Graphics/SVG/1.1/DTD/svg11.dtd"><svg t="1640341016038" class="icon" viewBox="0 0 1024 1024" version="1.1" xmlns="http://www.w3.org/2000/svg" p-id="1680" xmlns:xlink="http://www.w3.org/1999/xlink" width="200" height="200"><defs><style type="text/css"></style></defs><path d="M794.496 213.312H556.8c-9.984 0-19.904 6.272-19.904 16.192v37.312c0 9.984 8.704 21.184 19.904 21.184h98.304c11.2 0 17.408 12.416 8.704 19.904L452.288 519.488a18.048 18.048 0 0 0 0 26.112l26.112 26.112a18.048 18.048 0 0 0 26.112 0l211.584-211.52c7.488-7.488 19.904-2.56 19.904 8.704V467.2c0 9.984 9.984 21.12 19.904 21.12h36.096c9.984 0 18.688-11.136 18.688-21.12V230.784c0-11.2-6.272-17.472-16.192-17.472zM660.48 491.264l-44.288 45.632a37.504 37.504 0 0 0-11.776 27.392v148.608a20.032 20.032 0 0 1-19.52 19.52H311.04a20.032 20.032 0 0 1-19.52-19.52V439.04c0-10.432 9.088-19.52 19.52-19.52h149.952a35.52 35.52 0 0 0 27.328-11.776l44.352-44.288c7.808-7.872 2.56-22.208-9.152-22.208H265.472a52.288 52.288 0 0 0-52.16 52.16v365.056c0 28.672 23.488 52.16 52.16 52.16h365.056a52.288 52.288 0 0 0 52.16-52.16V500.416c0-11.776-14.336-16.96-22.208-9.152z" p-id="1681"></path></svg>