<?xml version="1.0" standalone="no"?><!DOCTYPE svg PUBLIC "-//W3C//DTD SVG 1.1//EN" "http://www.w3.org/Graphics/SVG/1.1/DTD/svg11.dtd"><svg t="1639581460532" class="icon" viewBox="0 0 1024 1024" version="1.1" xmlns="http://www.w3.org/2000/svg" p-id="9228" xmlns:xlink="http://www.w3.org/1999/xlink" width="200" height="200"><defs><style type="text/css"></style></defs><path d="M628.2752 178.6368a207.4624 207.4624 0 0 0 149.504 239.1552c3.072 12.288 5.888 24.2688 8.5504 35.6864 1.9456 8.3456 5.632 43.3152 5.632 52.224v77.1072c3.5328 15.4624 16.0256 35.7376 37.4784 60.7232 44.544 33.5872 70.7584 73.728 70.7584 116.992 0 117.248-190.1056 212.2752-424.4992 212.2752S51.2 877.7728 51.2 760.5248c0-43.264 26.2656-83.456 70.7584-116.992 15.4112-20.992 24.2688-38.656 26.624-52.992 3.072-19.456 3.4816-50.2784 1.2288-92.3648a359.8848 359.8848 0 0 1 3.584-46.08c21.4528-103.4752 67.0208-230.2464 183.7056-280.064C394.7008 154.7264 400.7936 127.488 409.6 101.5808c1.792-5.12 23.552-50.3296 66.048-50.3808 42.496 0 64.7168 46.08 66.2528 51.5072 7.168 25.3952 7.5776 53.4528 72.3456 69.3248 4.8128 2.048 9.472 4.2496 13.9776 6.6048zM475.4432 647.168c-176.64 0-356.1472 43.3664-356.1472 119.296s153.344 148.992 356.1472 148.992c202.752 0 349.9008-73.0624 349.9008-148.992s-173.312-119.296-349.9008-119.296z m-3.6864 195.6352c-60.416 0-112.3328-43.008-123.5968-102.4C381.3376 725.8112 424.2432 716.8 471.7568 716.8c47.5136 0 90.4704 9.0624 123.6992 23.552a125.952 125.952 0 0 1-123.6992 102.4512z" p-id="9229"></path><path d="M832 384a166.4 166.4 0 1 1 0-332.8 166.4 166.4 0 0 1 0 332.8z" p-id="9230"></path></svg>