<?xml version="1.0" standalone="no"?><!DOCTYPE svg PUBLIC "-//W3C//DTD SVG 1.1//EN" "http://www.w3.org/Graphics/SVG/1.1/DTD/svg11.dtd"><svg t="1641479151401" class="icon" viewBox="0 0 1024 1024" version="1.1" xmlns="http://www.w3.org/2000/svg" p-id="85015" xmlns:xlink="http://www.w3.org/1999/xlink" width="200" height="200"><defs><style type="text/css"></style></defs><path d="M511.744 1024C229.12 1024 0 794.752 0 512S229.12 0 511.744 0c282.581333 0 511.701333 229.248 511.701333 512s-229.12 512-511.701333 512z m-204.8-578.133333l-105.642667 37.461333a13.397333 13.397333 0 0 0-9.301333 12.373333c0 5.546667 3.669333 10.453333 9.301333 12.458667l305.450667 108.202667a15.786667 15.786667 0 0 0 10.496 0l305.493333-108.202667a13.397333 13.397333 0 0 0 9.258667-12.416 13.397333 13.397333 0 0 0-9.301333-12.416l-105.642667-37.418667-199.808 70.784a15.744 15.744 0 0 1-10.496 0l-199.850667-70.826666z m0 166.144l-105.642667 37.418666a13.397333 13.397333 0 0 0-9.301333 12.416c0 5.546667 3.669333 10.453333 9.301333 12.458667l305.450667 108.16a15.786667 15.786667 0 0 0 10.496 0l305.493333-108.16a13.397333 13.397333 0 0 0 9.258667-12.458667 13.397333 13.397333 0 0 0-9.301333-12.373333l-105.642667-37.461333-199.808 70.826666a15.744 15.744 0 0 1-10.496 0l-199.850667-70.826666zM512 456.32a15.744 15.744 0 0 0 5.248-0.853333l305.493333-108.202667a13.397333 13.397333 0 0 0 9.258667-12.416 13.397333 13.397333 0 0 0-9.301333-12.416L517.248 214.186667a16 16 0 0 0-10.496 0l-305.493333 108.202666a13.397333 13.397333 0 0 0-9.258667 12.373334c0 5.546667 3.669333 10.453333 9.301333 12.458666l305.450667 108.202667a15.786667 15.786667 0 0 0 5.248 0.853333z" p-id="85016"></path></svg>