<?xml version="1.0" ?><svg style="enable-background:new 0 0 512 512;" version="1.1" viewBox="0 0 512 512" xml:space="preserve" xmlns="http://www.w3.org/2000/svg" xmlns:xlink="http://www.w3.org/1999/xlink"><style type="text/css">
	.st0{display:none;}
	.st1{display:inline;}
	.st2{fill:none;stroke:#B3B3B3;stroke-miterlimit:10;}
	.st3{fill:none;stroke:#ED1C24;stroke-miterlimit:10;}
</style><g class="st0" id="Layer_31"><g class="st1"><g><g><ellipse class="st2" cx="256" cy="256" rx="248.1" ry="248.3"/><path class="st2" d="M398.8,504.5H113.2c-18.8,0-34.1-15.3-34.1-34.1V41.6c0-18.8,15.3-34.1,34.1-34.1h285.5      c18.8,0,34.1,15.3,34.1,34.1v428.9C432.9,489.3,417.6,504.5,398.8,504.5z"/><path class="st2" d="M7.9,399.8V112.2c0-16.4,13.3-29.8,29.8-29.8h436.7c16.4,0,29.8,13.3,29.8,29.8v287.6      c0,16.4-13.3,29.8-29.8,29.8H37.6C21.2,429.6,7.9,416.2,7.9,399.8z"/><path class="st2" d="M440.4,469.9H71.6c-16.4,0-29.8-13.3-29.8-29.8V71.9c0-16.4,13.3-29.8,29.8-29.8h368.8      c16.4,0,29.8,13.3,29.8,29.8v368.2C470.2,456.5,456.8,469.9,440.4,469.9z"/></g><rect class="st3" height="497" transform="matrix(-1.836970e-16 1 -1 -1.836970e-16 512 5.684342e-14)" width="497" x="7.5" y="7.5"/></g></g></g><g id="_x33_0_no_parking_sign"/><g id="_x32_9_paid_parking"/><g id="_x32_8_traffic_cone"/><g id="_x32_7_valet_parking_sign"/><g id="_x32_6_parking_ticket"/><g id="_x32_5_parking_gate"/><g id="_x32_4_limited_time_parking"/><g id="_x32_3_reserve_parking_disabilities"/><g id="_x32_2_mobile_parking"/><g id="_x32_1_ticket_parking__machine"/><g id="_x32_0_stop_sign"/><g id="_x31_9_car_lock"/><g id="_x31_8_mobile_parking"/><g id="_x31_7_parking_sign"/><g id="_x31_6_car_key"/><g id="_x31_5__x0A_tow_truck"/><g id="_x31_4_parking_lock"/><g id="_x31_3_parking_ticket"/><g id="_x31_2_parking_gate"/><g id="_x31_1_parking_machine"/><g id="_x31_0_garage_parking"/><g id="_x30_9_parking_map"/><g id="_x30_8_car_sign"/><g id="_x30_7_sparking_sign"/><g id="_x30_6_no_parking_sign"/><g id="_x30_5_no_car_sign"/><g id="_x30_4_valet_parking"/><g id="_x30_3_cctv"/><g id="_x30_2_valet_parking_attendant"/><g id="_x30_1_parking_attendant"/><g id="Layer_32"><g><path d="M256,0C114.6,0,0,114.6,0,256c0,141.4,114.6,256,256,256c141.4,0,256-114.6,256-256C512,114.6,397.4,0,256,0z M256,480.7    C131.9,480.7,31.3,380.1,31.3,256C31.3,131.9,131.9,31.3,256,31.3c124.1,0,224.7,100.6,224.7,224.7    C480.7,380.1,380.1,480.7,256,480.7z"/><g><path d="M259.5,240.1c0.3,0,0.6,0.1,1,0.1c4.7,0,9.3-0.6,14-1.8c4.7-1.2,8.8-3.2,12.4-6.1c5.4-4.2,9.3-10.7,11.8-19.3     c2.6-9,2.6-23.9,0-32.9c-2.5-8.6-6.5-15.1-11.8-19.3c-3.6-2.9-7.8-4.9-12.4-6.1c-4.7-1.2-9.3-1.8-14-1.8c-0.3,0-0.6,0.1-1,0.1     c-0.5,0-0.9-0.1-1.4-0.1l-19.2,0.6v30.2v25.6v30.2l19.2,0.6C258.6,240.2,259,240.1,259.5,240.1z"/><path d="M311.9,289.5c-2.7-5.7-6.3-10.2-10.7-13.7c-4.5-3.5-9.6-5.9-15.2-7.3c-5.7-1.4-11.4-2.1-17.3-2.1c-5.1,0-9.9,0-14.4,0.1     c-3.6,0-1.7-0.1-7.4-0.1c0,0.1,0,0.1,0,0.2c-2.8,0-5.5,0.1-8,0.2v32.1v27.6v32.1c2.5,0.1,5.2,0.1,8,0.2c0,0.1,0,0.1,0,0.2     c5.7,0,3.8,0,7.4-0.1c4.5,0,9.2,0.1,14.4,0.1c5.8,0,11.6-0.7,17.3-2.1c5.7-1.4,10.7-3.9,15.2-7.3c4.5-3.5,8.1-8,10.7-13.7     c2.7-5.7,4-12.7,4-21c0-0.7,0-1.3-0.1-2c0-0.7,0.1-1.3,0.1-2C315.9,302.2,314.6,295.2,311.9,289.5z"/><path d="M256,56.9C146,56.9,56.9,146,56.9,256c0,110,89.2,199.1,199.1,199.1S455.1,366,455.1,256C455.1,146,366,56.9,256,56.9z      M367.1,343.3c-4.5,9.1-10.7,16.7-18.6,22.8c-7.9,6.2-17.3,10.8-28.2,13.9c-4,1.1-8.1,2-12.3,2.8v34h-40.6v-32.1h-29.7v32.1     h-40.6v-32.1h-37.3v-0.3v-23.8v-7.3h13.6c6.5,0,11.7-5.3,11.7-11.7V177.1c0-6.5-5.3-11.7-11.7-11.7h-13.6v-9.2v-28.3l37.3-0.3     V95.1h40.6v32.3l23.8-0.2c2,0,3.9,0.1,5.9,0.1V95.1H308v38c8.2,2.4,15.4,5.6,21.7,9.6c8.2,5.2,14.5,11.7,18.9,19.6     c4.4,7.9,6.6,17.2,6.6,27.9c0,6.2-1,11.9-3,17.2c-2,5.3-5.2,10.3-9.4,15.2c-4.2,4.9-9.7,9.3-16.3,13.3c-6.6,4-14.5,7.3-23.7,9.8     v0.4c12.2,1.9,22.7,5,31.6,9.2c8.9,4.2,16.3,9.3,22.1,15c5.8,5.8,10.2,12.2,13.1,19.3c2.9,7.1,4.3,14.5,4.3,22.1     C373.8,323.8,371.6,334.3,367.1,343.3z"/></g></g></g></svg>