<?xml version="1.0" standalone="no"?><!DOCTYPE svg PUBLIC "-//W3C//DTD SVG 1.1//EN" "http://www.w3.org/Graphics/SVG/1.1/DTD/svg11.dtd"><svg t="1639620325267" class="icon" viewBox="0 0 1030 1024" version="1.1" xmlns="http://www.w3.org/2000/svg" p-id="109291" xmlns:xlink="http://www.w3.org/1999/xlink" width="201.171875" height="200"><defs><style type="text/css"></style></defs><path d="M516.26024094 992C779.00722905 992 992 779.00722905 992 516.2795178s-212.99277094-475.73975907-475.73975906-475.73975905-475.72048219 212.99277094-475.72048219 475.73975906S253.53252969 992 516.26024094 992z m-227.79759-444.27951844L486.61204813 349.49397594a39.51807188 39.51807188 0 0 1 28.02891562-11.56626469c0.5204822 0 1.02168656 0.28915687 1.54216875 0.30843375s1.02168656-0.30843375 1.54216875-0.30843375a39.51807188 39.51807188 0 0 1 28.02891562 11.56626469L744.05783094 547.72048156a39.63951844 39.63951844 0 1 1-56.05783125 56.05783124l-171.73975875-171.73975874-171.73975875 171.73975875a39.63951844 39.63951844 0 1 1-56.05783125-56.05783125z m0 0" p-id="109292" fill="#000000"></path></svg>